<svg width="72" height="84" viewBox="0 0 72 84" fill="none" xmlns="http://www.w3.org/2000/svg">
<path d="M35.977 0C44.0872 4.74526 52.5575 8.71524 61.4408 11.7858C63.9638 12.6588 66.5132 13.4544 69.0871 14.1686C70.6192 14.5939 70.9773 15.0721 70.9732 16.6471C70.9488 23.4435 71.1482 30.2439 70.8674 37.0342C70.5724 44.1887 68.8267 51.0176 65.6119 57.4376C60.7043 67.2374 53.3428 74.7053 43.8572 80.1078C41.5357 81.4305 39.1226 82.5801 36.451 83.0787C34.7663 83.3941 33.2281 82.867 31.7266 82.2769C25.7223 79.9145 20.5684 76.2355 15.9416 71.8056C10.0024 66.1203 5.63196 59.3931 2.91161 51.6179C0.854563 45.7413 -0.00203105 39.6693 3.61555e-06 33.461C0.00203828 27.8835 3.61555e-06 22.306 3.61555e-06 16.7264C3.61555e-06 15.0721 0.333684 14.6021 1.8902 14.1686C13.1928 11.035 23.889 6.47487 34.0115 0.555509C34.337 0.364233 34.6687 0.187208 34.9983 0.00203683C35.3238 0.00203683 35.6474 0.00203683 35.9729 0.00203683L35.977 0ZM3.52811 27.7004C3.52811 29.5948 3.5159 31.4913 3.53014 33.3857C3.57084 38.4077 4.1141 43.3585 5.54243 48.1953C7.9413 56.3123 12.2304 63.2776 18.2937 69.1542C22.0273 72.7742 26.1617 75.8672 30.8903 78.0607C35.4907 80.1953 35.4113 80.0691 39.678 78.2866C39.853 78.2133 40.0158 78.1157 40.1847 78.0322C46.9418 74.6849 52.6063 69.9865 57.2555 64.0752C63.4043 56.2594 66.7147 47.3203 67.3007 37.4269C67.6852 30.9398 67.4064 24.4344 67.4614 17.9372C67.4655 17.4875 67.2701 17.3287 66.8876 17.2168C65.6709 16.8628 64.4562 16.5006 63.2496 16.1119C53.8108 13.0759 44.785 9.09576 36.1784 4.17347C35.7064 3.90284 35.3503 3.85196 34.8498 4.14091C25.1749 9.73063 14.967 14.0771 4.23211 17.1802C3.70106 17.3328 3.50574 17.5424 3.51184 18.1142C3.54236 21.3089 3.52607 24.5036 3.52607 27.6983L3.52811 27.7004Z" fill="url(#paint0_linear_1_836)"/>
<path d="M13.8624 41.6553C13.9357 39.6611 15.0161 37.8562 17.2176 36.8714C19.3418 35.9211 21.4538 36.1429 23.1914 37.7219C25.2911 39.6326 27.2709 41.6777 29.2506 43.7166C29.7776 44.2599 30.0258 44.1703 30.504 43.6881C36.0179 38.1391 41.5603 32.6185 47.0845 27.0797C48.8912 25.2687 50.989 24.6297 53.4387 25.4905C56.9567 26.7276 58.2771 31.2491 55.9963 34.1915C55.7481 34.5109 55.4856 34.8243 55.2007 35.1112C48.1994 42.1212 41.1982 49.1293 34.1887 56.1312C32.0584 58.2596 29.3808 58.6625 26.9514 57.2564C26.455 56.9695 26.0277 56.5951 25.6248 56.1922C22.3307 52.9019 19.0366 49.6115 15.7486 46.3151C14.4342 44.9965 13.8726 43.7003 13.8624 41.6532V41.6553ZM53.5791 30.9906C53.5872 29.7677 52.9484 28.966 51.9188 28.7116C50.9157 28.4654 50.2158 28.9538 49.5545 29.6151C43.5665 35.6097 37.5744 41.5983 31.5823 47.5868C30.2801 48.8891 29.4581 48.8891 28.1539 47.5868C25.8364 45.2732 23.5271 42.9494 21.1994 40.646C20.2269 39.6835 18.8799 39.6428 18.0131 40.5035C17.1464 41.3663 17.1749 42.7276 18.1332 43.6901C21.4924 47.068 24.8598 50.4377 28.2394 53.7952C29.2709 54.8187 30.4816 54.7922 31.5315 53.7687C32.3657 52.9568 33.1795 52.1245 34.0036 51.3025C40.2052 45.1003 46.4049 38.8981 52.6086 32.6999C53.1396 32.1709 53.6116 31.6276 53.5771 30.9866L53.5791 30.9906Z" fill="url(#paint1_linear_1_836)"/>
<path d="M6.91159 24.6157C6.91159 23.5616 6.89735 22.5076 6.91566 21.4535C6.93397 20.4218 7.33887 19.8297 8.31551 19.5102C11.4123 18.4928 14.4805 17.3981 17.5346 16.2565C18.6333 15.8455 19.6059 16.2443 19.9782 17.1763C20.3668 18.1469 19.907 19.1033 18.7656 19.553C16.2833 20.5297 13.7806 21.4515 11.2373 22.2532C10.6696 22.4323 10.4234 22.6785 10.4499 23.3195C10.5068 24.7764 10.4763 26.2395 10.4641 27.6985C10.456 28.9336 9.78454 29.7109 8.73872 29.7313C7.65832 29.7516 6.94211 28.9702 6.9177 27.6985C6.89735 26.6709 6.91362 25.6433 6.91362 24.6177L6.91159 24.6157Z" fill="url(#paint2_linear_1_836)"/>
<path d="M55.361 56.1554C56.7344 56.1391 57.5544 57.5534 56.8565 58.8089C56.478 59.4905 55.9999 60.1193 55.5401 60.7522C52.9113 64.3579 49.782 67.4773 46.2823 70.2345C45.2853 71.02 44.2904 71.02 43.6149 70.2345C42.8885 69.3901 43.035 68.334 44.0727 67.4895C46.6384 65.4058 49.0637 63.1838 51.1594 60.6158C52.0669 59.5068 52.9113 58.3531 53.7211 57.1708C54.2318 56.424 54.6875 56.1595 55.361 56.1514V56.1554Z" fill="url(#paint3_linear_1_836)"/>
<path d="M40.7277 70.194C41.6759 70.2062 42.4714 71.0324 42.445 71.9725C42.4185 72.9044 41.5314 73.753 40.5833 73.753C39.6107 73.753 38.8396 72.9757 38.8518 72.001C38.864 70.9734 39.688 70.1798 40.7277 70.194Z" fill="url(#paint4_linear_1_836)"/>
<path d="M25.0833 15.7294C25.1057 16.6776 24.2674 17.514 23.2806 17.5303C22.3752 17.5445 21.541 16.696 21.5389 15.7599C21.5369 14.8605 22.3793 14.0181 23.305 13.9937C24.2166 13.9693 25.063 14.7954 25.0854 15.7294H25.0833Z" fill="url(#paint5_linear_1_836)"/>
<defs>
<linearGradient id="paint0_linear_1_836" x1="35.5096" y1="0" x2="35.5096" y2="83.1732" gradientUnits="userSpaceOnUse">
<stop stop-color="#EC0DFC"/>
<stop offset="1" stop-color="#3FA5E6"/>
</linearGradient>
<linearGradient id="paint1_linear_1_836" x1="35.4957" y1="25.1118" x2="35.4957" y2="58.0811" gradientUnits="userSpaceOnUse">
<stop stop-color="#EC0DFC"/>
<stop offset="1" stop-color="#3FA5E6"/>
</linearGradient>
<linearGradient id="paint2_linear_1_836" x1="13.5101" y1="16.0952" x2="13.5101" y2="29.7317" gradientUnits="userSpaceOnUse">
<stop stop-color="#EC0DFC"/>
<stop offset="1" stop-color="#3FA5E6"/>
</linearGradient>
<linearGradient id="paint3_linear_1_836" x1="50.1366" y1="56.1514" x2="50.1366" y2="70.8236" gradientUnits="userSpaceOnUse">
<stop stop-color="#EC0DFC"/>
<stop offset="1" stop-color="#3FA5E6"/>
</linearGradient>
<linearGradient id="paint4_linear_1_836" x1="40.6486" y1="70.1938" x2="40.6486" y2="73.753" gradientUnits="userSpaceOnUse">
<stop stop-color="#EC0DFC"/>
<stop offset="1" stop-color="#3FA5E6"/>
</linearGradient>
<linearGradient id="paint5_linear_1_836" x1="23.3122" y1="13.9932" x2="23.3122" y2="17.5304" gradientUnits="userSpaceOnUse">
<stop stop-color="#EC0DFC"/>
<stop offset="1" stop-color="#3FA5E6"/>
</linearGradient>
</defs>
</svg>
